<svg width="30" height="30" viewBox="0 0 30 30" fill="none" xmlns="http://www.w3.org/2000/svg">
<mask id="mask0_255_4047" style="mask-type:alpha" maskUnits="userSpaceOnUse" x="0" y="0" width="30" height="30">
<rect width="30" height="30" fill="#D9D9D9"/>
</mask>
<g mask="url(#mask0_255_4047)">
<path d="M7.01922 25C6.44391 25 5.96354 24.8073 5.57812 24.4219C5.19271 24.0365 5 23.5561 5 22.9808V7.01922C5 6.44391 5.19271 5.96354 5.57812 5.57812C5.96354 5.19271 6.44391 5 7.01922 5H14.0385V6.25H7.01922C6.82693 6.25 6.65065 6.33013 6.49038 6.49038C6.33013 6.65065 6.25 6.82693 6.25 7.01922V22.9808C6.25 23.1731 6.33013 23.3494 6.49038 23.5096C6.65065 23.6699 6.82693 23.75 7.01922 23.75H22.9808C23.1731 23.75 23.3494 23.6699 23.5096 23.5096C23.6699 23.3494 23.75 23.1731 23.75 22.9808V15.9615H25V22.9808C25 23.5561 24.8073 24.0365 24.4219 24.4219C24.0365 24.8073 23.5561 25 22.9808 25H7.01922ZM12.1731 18.7115L11.2885 17.8269L22.8654 6.25H17.5V5H25V12.5H23.75V7.13462L12.1731 18.7115Z" fill="#F0F5FE"/>
</g>
</svg>
